<?xml version="1.0" encoding="utf-8"?>
<!-- Generator: Adobe Illustrator 19.0.0, SVG Export Plug-In . SVG Version: 6.00 Build 0)  -->
<svg version="1.1" id="Layer_1" xmlns="http://www.w3.org/2000/svg" xmlns:xlink="http://www.w3.org/1999/xlink" x="0px" y="0px"
	 viewBox="0 0 59.8 41" style="enable-background:new 0 0 59.8 41;" xml:space="preserve">
<style type="text/css">
	.st0{fill:#56B848;}
</style>
<g id="XMLID_59_">
	<g id="XMLID_244_">
		<path id="XMLID_89_" class="st0" d="M36.7,28.1H18.4c-2.5,0-4.4-2-4.4-4.4v-7.7c0-2.5,2-4.4,4.4-4.4h18.3c2.5,0,4.4,2,4.4,4.4v7.7
			C41.2,26.1,39.2,28.1,36.7,28.1z M18.4,12.5c-1.9,0-3.4,1.5-3.4,3.4v7.7c0,1.9,1.5,3.4,3.4,3.4h18.3c1.9,0,3.4-1.5,3.4-3.4v-7.7
			c0-1.9-1.5-3.4-3.4-3.4H18.4z"/>
	</g>
	<g id="XMLID_251_">
		<path id="XMLID_86_" class="st0" d="M27.5,25.2c-3,0-5.4-2.4-5.4-5.4s2.4-5.4,5.4-5.4s5.4,2.4,5.4,5.4S30.5,25.2,27.5,25.2z
			 M27.5,15.4c-2.4,0-4.4,2-4.4,4.4s2,4.4,4.4,4.4s4.4-2,4.4-4.4S29.9,15.4,27.5,15.4z"/>
	</g>
	<g id="XMLID_257_">
		<path id="XMLID_83_" class="st0" d="M37.6,17h-3c-0.8,0-1.4-0.6-1.4-1.4v-0.6c0-0.8,0.6-1.4,1.4-1.4h3c0.8,0,1.4,0.6,1.4,1.4v0.6
			C39,16.4,38.4,17,37.6,17z M34.7,14.8c-0.2,0-0.3,0.1-0.3,0.3v0.6c0,0.2,0.1,0.3,0.3,0.3h3c0.2,0,0.3-0.1,0.3-0.3v-0.6
			c0-0.2-0.1-0.3-0.3-0.3H34.7z"/>
	</g>
	<g id="XMLID_258_">
		<path id="XMLID_82_" class="st0" d="M47.3,10.5h-9.7c-0.3,0-0.5-0.2-0.5-0.5s0.2-0.5,0.5-0.5h9.7c0.3,0,0.5,0.2,0.5,0.5
			S47.6,10.5,47.3,10.5z"/>
	</g>
	<g id="XMLID_263_">
		<path id="XMLID_81_" class="st0" d="M42.8,15.7c-0.3,0-0.5-0.2-0.5-0.5V5.4c0-0.3,0.2-0.5,0.5-0.5s0.5,0.2,0.5,0.5v9.7
			C43.3,15.5,43.1,15.7,42.8,15.7z"/>
	</g>
</g>
</svg>
