<?xml version="1.0" encoding="utf-8"?>
<!-- Generator: Adobe Illustrator 19.0.0, SVG Export Plug-In . SVG Version: 6.00 Build 0)  -->
<svg version="1.1" id="Layer_1" xmlns="http://www.w3.org/2000/svg" xmlns:xlink="http://www.w3.org/1999/xlink" x="0px" y="0px"
	 viewBox="0 0 31.1 31.1" style="enable-background:new 0 0 31.1 31.1;" xml:space="preserve">
<style type="text/css">
	.st0{fill:#53B849;}
</style>
<g id="XMLID_2_">
	<path id="XMLID_24_" class="st0" d="M18,28.6c0,1.4-1.1,2.5-2.5,2.5c-0.7,0-1.3-0.3-1.8-0.7c-0.4-0.4-0.7-1.1-0.7-1.8V18.1l-10.5,0
		c-0.7,0-1.3-0.3-1.8-0.7S0,16.3,0,15.6c0-1.4,1.1-2.5,2.5-2.5l10.5,0V2.5C13,1.1,14.1,0,15.5,0C16.9,0,18,1.1,18,2.5l0,10.6h10.6
		c1.4,0,2.5,1.1,2.5,2.5c0,1.4-1.1,2.5-2.5,2.5H18L18,28.6z"/>
</g>
</svg>
