<?xml version="1.0" encoding="utf-8"?>
<!-- Generator: Adobe Illustrator 19.0.0, SVG Export Plug-In . SVG Version: 6.00 Build 0)  -->
<svg version="1.1" id="Layer_1" xmlns="http://www.w3.org/2000/svg" xmlns:xlink="http://www.w3.org/1999/xlink" x="0px" y="0px"
	 viewBox="0 0 20 20" style="enable-background:new 0 0 20 20;" xml:space="preserve">
<style type="text/css">
	.st0{fill:#2B35B2;}
</style>
<g id="XMLID_27_">
	<path id="XMLID_368_" class="st0" d="M20,4.1C20,1.8,18.2,0,15.9,0H4.1C1.8,0,0,1.8,0,4.1v11.9C0,18.2,1.8,20,4.1,20h11.9
		c2.2,0,4.1-1.8,4.1-4.1V4.1z M11.6,18c-0.3,0.4-1.6,0-1.6-0.2V17h1.6C11.6,17,11.6,17.6,11.6,18z M16.5,9.2
		c-0.3,0.8-0.8,1.5-1.4,2.3c-0.5,0.7-1.1,1.4-1.7,2c-0.3,0.3-0.5,0.6-0.8,0.9c-0.3,0.3-0.5,0.6-0.8,0.9c-0.1,0.2-0.2,0.4-0.4,0.7
		c-0.4,0-0.9,0-1.3-0.1c-0.2-0.1-0.3-0.1-0.4-0.3c-0.2-0.4-0.5-0.7-0.8-1c-0.6-0.7-1.3-1.3-1.9-2c-0.8-0.9-1.4-1.9-2-2.9
		C5,9.4,4.7,8.1,4.7,7.8c0-0.3,0-0.6,0-0.9c0-0.6,0.2-1.1,0.4-1.6c0.2-0.5,0.5-1,1-1.3c0.7-0.5,1.4-0.9,2.2-1.1
		c0.6-0.1,1.2-0.3,1.8-0.3c0.5,0,0.9,0,1.4,0c0.7,0,1.4,0.1,2.1,0.3c0.6,0.2,1.3,0.4,1.8,0.9c0.3,0.3,0.7,0.6,1,1
		c0.4,0.6,0.6,1.2,0.6,2c0,0.2,0,0.4,0,0.6C17,8.1,16.8,8.6,16.5,9.2z"/>
	<path id="XMLID_260_" class="st0" d="M10.3,14.7C10.3,14.7,10.2,14.7,10.3,14.7c-0.1,0-0.1,0-0.1-0.1c0,0,0,0,0,0
		c-0.4-0.5-0.7-1-1.1-1.5c-0.4-0.4-0.6-0.8-0.9-1.2c-0.6-0.7-1-1.6-1.4-2.4C6.4,8.8,6.2,8.1,6.1,7.3c0-0.7,0.1-1.4,0.4-2
		c0.3-0.7,0.9-1,1.4-1.6c0.5-0.1,0.9-0.5,1.4-0.6c0.1,0,0.2,0,0.4,0C9.2,3.5,9,4,8.8,4.4C8.5,5,8.2,5.5,8.2,6.2c0,0.6,0,1.2,0,1.8
		c0,0.6,0.3,1.1,0.4,1.6c0.1,0.8,0.5,1.6,0.7,2.4c0.1,0.4,0.3,0.9,0.5,1.3c0.1,0.2,0,0.5,0.2,0.7c0.1,0.1,0.1,0.4,0.2,0.6
		C10.2,14.6,10.2,14.7,10.3,14.7z"/>
	<path id="XMLID_241_" class="st0" d="M14.9,9.5c-0.5,0.9-1,1.8-1.7,2.7c-0.5,0.7-1.1,1.5-1.6,2.2c0,0.1,0,0.1-0.1,0.2
		c0,0-0.1,0-0.1-0.1c0-0.1,0-0.2,0-0.2c0.5-1,0.6-2.2,1.1-3.2c0.2-0.3,0.2-0.7,0.3-1c0.1-0.4,0.3-0.8,0.4-1.3c0.2-1,0.2-1.9,0.1-2.9
		c-0.1-0.6-0.2-1.2-0.6-1.7c-0.3-0.4-0.5-0.8-0.9-1.1c0.4-0.1,0.6,0.1,0.9,0.2c1.3,0.6,2.2,1.5,2.6,2.9c0,0,0,0.1,0,0.1
		C15.5,7.4,15.4,8.5,14.9,9.5z"/>
</g>
</svg>
