<?xml version="1.0" encoding="utf-8"?>
<!-- Generator: Adobe Illustrator 19.0.0, SVG Export Plug-In . SVG Version: 6.00 Build 0)  -->
<svg version="1.1" xmlns="http://www.w3.org/2000/svg" xmlns:xlink="http://www.w3.org/1999/xlink" x="0px" y="0px"
	 viewBox="0 0 89.8 73.6" style="enable-background:new 0 0 89.8 73.6;" xml:space="preserve">
<style type="text/css">
	.st0{fill:#FFFFFF;}
</style>
<g id="Layer_1">
	<g id="XMLID_254_">
		<path id="XMLID_344_" class="st0" d="M89,17.1c0,13.3,0,26.7,0,40c0,0.3-0.1,0.5-0.1,0.8c-0.3,1.4-1.1,2.5-2.4,3.1
			c-0.1,0.1-0.1,0.2-0.1,0.3c0,1.4,0,2.9,0,4.3c0,0.3,0,0.7-0.1,1c-0.4,2.3-2.3,4.2-4.9,4.2c-9.6,0-19.1,0-28.7,0
			c-0.2,0-0.3,0.1-0.4,0.2c-0.5,0.5-1,1-1.6,1.4c-0.9,0.7-1.9,1.1-3.1,1.1c-1.8,0-3.5,0-5.3,0c-0.7,0-1.3-0.2-1.9-0.5
			c-1-0.5-1.8-1.2-2.5-2c-0.1-0.1-0.2-0.2-0.4-0.2c-9.2,0-18.4,0-27.6,0c-0.9,0-1.7-0.2-2.5-0.6c-1.8-1-2.8-2.6-2.9-4.7
			c0-0.9,0-1.9,0-2.8c0-0.4,0-0.8,0-1.3c-0.1,0-0.1,0-0.2-0.1c-1.6-0.6-2.9-1.5-3.8-3.1C0.3,58,0.2,57.5,0,57c0-13.3,0-26.6,0-39.9
			C0,17.1,0,17,0,17c0.2-1.4,0.9-2.5,2-3.3c1-0.7,2.1-1,3.3-1c0.6,0,1.2,0,1.8,0c0-0.4,0-0.7,0-1.1c0-0.6,0-1.2,0.1-1.8
			C7.5,7.9,9,6.5,10.7,6.2c0.9-0.2,1.7,0,2.6,0.2c0.2,0.1,0.5,0.1,0.7,0.2c0-0.1,0-0.2,0-0.2c0-1,0.3-2,0.7-3c0.8-1.6,2-2.7,3.7-3.1
			C19.7-0.2,21,0,22.2,0.4c2.1,0.7,4.2,1.5,6.3,2.2c1.1,0.4,2.3,0.8,3.4,1.3c1.4,0.8,2.6,1.7,3.5,3.2c0.8,1.4,1.1,2.9,1.2,4.4
			c0.1,1.2,0.1,2.4,0,3.5c0,0.3,0.1,0.5,0.4,0.6c2.4,1.5,4.9,3,7.1,4.8c0.3,0.2,0.7,0.5,1,0.8c0.1,0,0.1-0.1,0.2-0.1
			c2.7-2.2,5.6-4.1,8.6-5.8c4.6-2.6,9.4-4.7,14.4-6.5C71,7.8,74,6.9,77,6.2c1.1-0.3,2.2-0.1,3.1,0.5c1,0.8,1.5,1.8,1.7,3.1
			c0.1,0.9,0,1.7,0.1,2.6c0,0.1,0,0.2,0,0.2c0.8,0,1.5,0,2.2,0c2.2,0,4.2,1.5,4.7,3.7C88.9,16.6,88.9,16.9,89,17.1z M78.3,9.9
			C78,10,77.8,10,77.6,10.1c-2.4,0.5-4.7,1.2-7,2c-4.3,1.4-8.4,3.2-12.4,5.3c-3.8,2-7.5,4.3-10.8,7.1c-0.1,0.1-0.2,0.2-0.2,0.4
			c0,13.3,0,26.5,0,39.8c0,0.1,0,0.1,0,0.2c0.1-0.1,0.2-0.1,0.2-0.1c4.6-3.4,9.5-6.1,14.7-8.3c3.2-1.4,6.5-2.6,9.9-3.6
			c1.7-0.5,3.5-0.9,5.3-1.4c0.5-0.1,0.8-0.3,0.9-0.8c0.1-0.4,0.2-0.7,0.2-1.1c0-13.1,0-26.2,0-39.3C78.3,10.1,78.3,10,78.3,9.9z
			 M11.6,9.9c0,0.3,0,0.6,0,0.8c0,12.9,0,25.8,0,38.7c0,1,0.6,1.7,1.5,1.9c3.7,0.8,7.3,1.9,10.8,3.2c3.1,1.1,6.2,2.5,9.2,3.9
			c3.3,1.6,6.4,3.5,9.4,5.6c0.3,0.2,0.7,0.5,1,0.7c0-0.1,0-0.2,0-0.3c0-4.1,0-8.2,0-12.3c0-9.1,0-18.3,0-27.4c0-0.2-0.1-0.3-0.2-0.4
			c-0.6-0.4-1.2-0.7-1.7-1.1c-1.7-1.1-3.4-2.2-5.1-3.4c0,0,0,0-0.1,0c0,0.1,0,0.2,0,0.3c0,7,0,14,0,21c0,0.2,0,0.4-0.1,0.6
			c-0.2,0.7-0.6,1.1-1.3,1.2c-0.7,0.2-1.3-0.1-1.8-0.7c-2.1-2.5-4.3-5.1-6.4-7.6c-0.1-0.1-0.2-0.1-0.3-0.1c-0.8,0.4-1.6,0.9-2.4,1.3
			c-1.2,0.6-2.3,1.3-3.5,1.9c-1.3,0.7-3-0.2-3-1.8c0-8.1,0-16.2,0-24.4c0-0.2,0-0.3-0.2-0.3c-1.4-0.4-2.7-0.8-4.1-1.2
			C12.9,10.2,12.2,10.1,11.6,9.9z M32.9,36.6C32.9,36.6,32.9,36.6,32.9,36.6c0-0.1,0-0.1,0-0.2c0-7.7,0-15.4,0-23.2
			c0-0.9-0.1-1.8-0.2-2.7c-0.2-1.2-0.7-2.2-1.6-2.9c-0.6-0.5-1.4-0.8-2.1-1.1c-2-0.7-3.9-1.4-5.9-2.1c-0.9-0.3-1.7-0.6-2.6-0.9
			c-1.4-0.4-2.8,0.7-2.9,2.1c0.1,0,0.1,0,0.2,0c1.7-0.1,3,0.7,3.4,2.5c0.1,0.7,0.2,1.3,0.2,2c0,7.7,0,15.4,0,23.2c0,0.1,0,0.2,0,0.3
			c0.1,0,0.2-0.1,0.2-0.1c1.5-0.8,3.1-1.7,4.7-2.5c0.8-0.4,1.8-0.3,2.4,0.5c0.8,1,1.6,1.9,2.4,2.9C31.6,35.1,32.3,35.8,32.9,36.6z
			 M81.9,16.5c0,0.2,0,0.3,0,0.4c0,4.8,0,9.6,0,14.4c0,6.1,0,12.2,0,18.3c0,1-0.2,2-0.7,3c-0.7,1.3-1.7,2.2-3.2,2.5
			c-1.1,0.3-2.2,0.5-3.3,0.8c-4.3,1.2-8.4,2.7-12.4,4.5c-0.1,0.1-0.3,0.1-0.4,0.2c0,0,0.1,0,0.1,0c1.1-0.2,2.3-0.5,3.4-0.7
			c1.9-0.4,3.9-0.7,5.8-1c2-0.3,4.1-0.5,6.2-0.7c2.3-0.2,4.6-0.3,6.9-0.3c0.8,0,1.2-0.4,1.2-1.2c0-12.9,0-25.9,0-38.8
			c0-0.7-0.7-1.2-1.2-1.2C83.4,16.5,82.7,16.5,81.9,16.5z M7.1,16.5c-0.7,0-1.3,0-1.9,0c-0.3,0-0.5,0.2-0.6,0.5
			c-0.1,0.2-0.1,0.5-0.1,0.7c0,13,0,25.9,0,38.9c0,0.8,0.4,1.2,1.2,1.2c2.6,0,5.2,0.2,7.8,0.4c1.8,0.2,3.7,0.4,5.5,0.7
			c2.7,0.4,5.3,0.9,7.9,1.4c0.4,0.1,0.8,0.2,1.2,0.3c-0.1-0.1-0.1-0.1-0.2-0.1c-2-0.9-4.1-1.8-6.2-2.5c-2.1-0.7-4.2-1.4-6.4-2
			c-1.3-0.3-2.6-0.6-3.9-0.9c-2.4-0.6-4.2-3-4.2-5.4c0-10.9,0-21.8,0-32.7C7.1,16.8,7.1,16.7,7.1,16.5z M8,61.7c0,0.1,0,0.1,0,0.1
			c0,1.3,0,2.6,0,4c0,0.1,0,0.1,0,0.2c0.1,0.6,1.1,1.4,1.8,1.4c8.7,0,17.3,0,26,0c0.1,0,0.2,0,0.2,0C27,63.7,17.7,62.1,8,61.7z
			 M81.9,61.7c-0.8-0.1-6.8,0.5-9.5,0.9c-3.1,0.5-6.2,1.1-9.3,1.9c-3.8,1-8.6,2.6-9,2.9c0.1,0,0.1,0,0.2,0c9,0,18.1,0,27.1,0
			c0.1,0,0.1,0,0.2,0c0.2,0,0.3-0.1,0.3-0.3c0-0.1,0.1-0.2,0.1-0.4c0-0.4,0-0.7,0-1.1c0-1.2,0-2.5,0-3.7
			C81.9,61.8,81.9,61.7,81.9,61.7z"/>
	</g>
</g>
<g id="Layer_2">
</g>
</svg>
