<?xml version="1.0" encoding="utf-8"?>
<!-- Generator: Adobe Illustrator 19.0.0, SVG Export Plug-In . SVG Version: 6.00 Build 0)  -->
<svg version="1.1" id="Layer_1" xmlns="http://www.w3.org/2000/svg" xmlns:xlink="http://www.w3.org/1999/xlink" x="0px" y="0px"
	 viewBox="0 0 250 250" style="enable-background:new 0 0 250 250;" xml:space="preserve">
<style type="text/css">
	.st0{fill:#55B848;}
</style>
<path id="XMLID_306_" class="st0" d="M219.6,66h-28.5l-8.3-14.1c-6-11.3-17.7-16.9-30.5-16.9h-32.4c-12.8,0-24.5,5.6-30.5,16.9
	L81.2,66H44.4C23.6,66,1,86.1,1,106.9v73.9C1,201.5,23.6,216,44.4,216h175.2c20.8,0,30.4-14.5,30.4-35.3v-73.9
	C250,86.1,240.4,66,219.6,66z M131.7,190.1c-26,0-47-21-47-47c0-26,21-47,47-47s47,21,47,47C178.7,169.1,157.6,190.1,131.7,190.1z
	 M230,105.9c0,4.4-3.6,8.1-8.1,8.1h-28.9c-4.4,0-8.1-3.6-8.1-8.1v-7.9c0-4.4,3.6-8.1,8.1-8.1h28.9c4.4,0,8.1,3.6,8.1,8.1V105.9z"/>
</svg>
