<?xml version="1.0" encoding="utf-8"?>
<!-- Generator: Adobe Illustrator 19.0.0, SVG Export Plug-In . SVG Version: 6.00 Build 0)  -->
<svg version="1.1" id="Layer_1" xmlns="http://www.w3.org/2000/svg" xmlns:xlink="http://www.w3.org/1999/xlink" x="0px" y="0px"
	 viewBox="0 0 70 54.7" style="enable-background:new 0 0 70 54.7;" xml:space="preserve">
<style type="text/css">
	.st0{fill:#333333;}
</style>
<g id="XMLID_610_">
	<g id="XMLID_592_">
		<path id="XMLID_595_" class="st0" d="M7.5,12.5H4.7C2.1,12.5,0,10.4,0,7.8V5c0-2.6,2.1-4.7,4.7-4.7h2.8c2.6,0,4.7,2.1,4.7,4.7v2.8
			C12.1,10.4,10,12.5,7.5,12.5z"/>
		<path id="XMLID_599_" class="st0" d="M65.3,12.5H26c-2.6,0-4.7-2.1-4.7-4.7V5c0-2.6,2.1-4.7,4.7-4.7h39.4C67.9,0.3,70,2.4,70,5
			v2.8C70,10.4,67.9,12.5,65.3,12.5z"/>
	</g>
	<g id="XMLID_608_">
		<path id="XMLID_605_" class="st0" d="M7.5,33.4H4.7c-2.6,0-4.7-2.1-4.7-4.7V26c0-2.6,2.1-4.7,4.7-4.7h2.8c2.6,0,4.7,2.1,4.7,4.7
			v2.8C12.1,31.3,10,33.4,7.5,33.4z"/>
		<path id="XMLID_603_" class="st0" d="M65.3,33.4H26c-2.6,0-4.7-2.1-4.7-4.7V26c0-2.6,2.1-4.7,4.7-4.7h39.4c2.6,0,4.7,2.1,4.7,4.7
			v2.8C70,31.3,67.9,33.4,65.3,33.4z"/>
	</g>
	<g id="XMLID_609_">
		<path id="XMLID_607_" class="st0" d="M7.5,54.4H4.7c-2.6,0-4.7-2.1-4.7-4.7v-2.8c0-2.6,2.1-4.7,4.7-4.7h2.8c2.6,0,4.7,2.1,4.7,4.7
			v2.8C12.1,52.3,10,54.4,7.5,54.4z"/>
		<path id="XMLID_606_" class="st0" d="M65.3,54.4H26c-2.6,0-4.7-2.1-4.7-4.7v-2.8c0-2.6,2.1-4.7,4.7-4.7h39.4
			c2.6,0,4.7,2.1,4.7,4.7v2.8C70,52.3,67.9,54.4,65.3,54.4z"/>
	</g>
</g>
</svg>
