<?xml version="1.0" encoding="utf-8"?>
<!-- Generator: Adobe Illustrator 19.0.0, SVG Export Plug-In . SVG Version: 6.00 Build 0)  -->
<svg version="1.1" id="Layer_1" xmlns="http://www.w3.org/2000/svg" xmlns:xlink="http://www.w3.org/1999/xlink" x="0px" y="0px"
	 viewBox="0 0 396.1 94.5" style="enable-background:new 0 0 396.1 94.5;" xml:space="preserve">
<style type="text/css">
	.st0{fill:#55B848;}
	.st1{fill:#F5841F;}
</style>
<g id="XMLID_67_">
	<g id="XMLID_432_">
		<g id="XMLID_466_">
			<path id="XMLID_484_" class="st0" d="M147.8,58.4l-7.2,36.1h-12.2l2.7-13.3h-11.2l-2.7,13.3H105l7.2-36.1h12.2l-2.6,12.8H133
				l2.6-12.8H147.8z"/>
			<path id="XMLID_481_" class="st0" d="M172.7,88.2H159l-3.6,6.3h-12.8l23-36.1h12l8.6,36.1h-12.1L172.7,88.2z M171,79.4l-1.8-9.2
				l-5.3,9.2H171z"/>
			<path id="XMLID_478_" class="st0" d="M222.4,61.5c2.6,2.1,4,5,4,8.8c0,3-0.7,5.7-2.2,8c-1.5,2.3-3.6,4.1-6.4,5.4
				c-2.8,1.3-6,1.9-9.6,1.9h-6.2l-1.8,8.9H188l7.2-36.1h16C216,58.4,219.8,59.4,222.4,61.5z M212.7,74.9c0.9-0.8,1.4-2,1.4-3.5
				c0-2.4-1.5-3.7-4.5-3.7h-4.1l-1.7,8.5h5C210.4,76.2,211.7,75.8,212.7,74.9z"/>
			<path id="XMLID_476_" class="st0" d="M233,58.4h12.2l-7.2,36.1h-12.2L233,58.4z"/>
			<path id="XMLID_473_" class="st1" d="M279.6,78.6c-1.7,2.4-4.1,4.2-7.2,5.3l6,10.5h-12.6l-5.1-9.1h-3l-1.8,9.1h-12.2l7.2-36.1
				h16.2c4.7,0,8.4,1,11.1,3.1c2.6,2.1,3.9,5,3.9,8.7C282.2,73.4,281.3,76.2,279.6,78.6z M265.3,67.8h-4.1l-1.7,8.5h5
				c1.7,0,3-0.4,3.9-1.3c0.9-0.8,1.4-2,1.4-3.5C269.9,69,268.4,67.8,265.3,67.8z"/>
			<path id="XMLID_471_" class="st1" d="M299.5,67.6l-0.8,4.2h15.3l-1.8,8.8h-15.3l-0.9,4.7H314l-1.9,9.2h-30l7.2-36.1h29.3
				l-1.9,9.2H299.5z"/>
			<path id="XMLID_469_" class="st1" d="M359.6,58.4l-7.2,36.1h-10l-10.4-16.8l-3.3,16.8h-11.9l7.2-36.1h10l10.4,16.8l3.4-16.8
				H359.6z"/>
			<path id="XMLID_467_" class="st1" d="M371.4,67.8h-10.6l1.9-9.4h33.3l-1.9,9.4h-10.6l-5.3,26.6h-12.2L371.4,67.8z"/>
		</g>
		<path id="XMLID_457_" class="st1" d="M57,0H32.6c-6.2,0-11.7,5.3-13.4,10.9c-2.1,8.3-4.3,16.7-6.4,25c-1.6,5.5,2,11.1,7.9,10.9
			c8.2-0.1,16.4-0.1,24.7-0.2c6-0.4,12.2-4.9,13.6-11c2.1-8.2,4.2-16.6,6.2-24.8C66.6,5.2,62.7,0,57,0z M53.7,21.2
			c0,0,0,0.1,0.1,0.2c-4.5-0.1-8.6-1-11.1-5.2c-0.3-0.5-0.5-1-0.7-1.5c-0.3-0.6-0.2-1.2,0.4-1.5c0.6-0.4,1.2-0.5,1.8,0.1
			c0.4,0.4,0.8,0.9,1,1.4c1.5,3.7,4.5,5.4,8.1,6.4C53.4,21.1,53.6,21.2,53.7,21.2z M41.5,8.7c2.6,0.2,5.1,0.3,7.7,0.6
			c1.4,0.1,2.5,1.5,2.4,3c-0.1,1.5-1.2,2.6-2.7,2.8c-1.3,0.2-2.9-0.8-3.2-2.2c-0.1-0.7-0.5-1.1-1-1.4c-1.1-0.8-2.3-1.7-3.4-2.6
			C41.4,8.8,41.5,8.7,41.5,8.7z M26.9,37.6c-4.1,0.9-7.1-1.8-7.5-5.6c0-0.3,0-0.7,0-1c0-4,2.5-7.6,6.1-8.8c2.7-0.9,5.4,0.1,6.9,2.5
			C35.1,29.3,32.1,36.4,26.9,37.6z M36.9,36.1l-0.2,0c-0.2-0.4-0.3-0.9-0.5-1.3c-1.3-5-2.6-10.1-3.8-15.1c-0.2-0.6-0.1-1.4,0.1-2
			c0.2-0.5,0.7-1,1.2-1.1c0.4,0,1.1,0.4,1.3,0.8c0.4,0.9,0.8,2,0.8,3c0.4,5,0.7,9.9,1,14.8C37,35.5,36.9,35.8,36.9,36.1z M38.4,27.8
			c-0.2,0.2-0.5,0.4-0.9,0.5c1.1-2.3,2.3-4.7,3.5-7.1c-0.9-0.3-1.7-0.6-2.4-1c-0.7-0.3-1.4-0.7-1.9-1.2c-0.3-0.3-0.3-1-0.2-1.6
			c0.1-0.6,0.6-0.8,1.2-0.7c2.3,0.1,4,1.2,5.5,2.8c0.6,0.6,0.7,1.4,0.3,2.1c-0.3,0.8-0.7,1.6-1.3,2.2C40.9,25.2,39.6,26.5,38.4,27.8
			z M50.7,37.6c-4,1.6-8-0.9-8.5-5.3c-0.5-4.3,2.4-8.7,6.5-9.9c0.5-0.1,1.1-0.2,1.6-0.3c2.8,0.1,4.8,1.8,5.6,4.6
			C57.2,31,54.8,35.9,50.7,37.6z"/>
		<path id="XMLID_450_" class="st0" d="M44.8,48.7c-8.2,0.1-16.4,0.2-24.7,0.2c-6.3-0.1-11.9,5.3-13.6,11c-2.1,8.1-4.1,15.9-6.2,24
			c-1.5,5.5,2.6,10,8.2,10h24.4c5.8,0,12-4.2,13.4-10.2c2.1-8.2,4.3-16.2,6.4-24.4C54.3,53.9,50.7,48.6,44.8,48.7z M33.8,62.6
			c3.1,3.5,4.2,9.3,3.7,12.6c-4.7-0.2-8.6,1.6-12.2,4.6c1.6-7.6,1.2-15-0.5-22.6C28.4,58.2,31.5,59.9,33.8,62.6z M20.2,56.6
			c0.7-0.5,1.3-1,2.2-1c0.2,0,0.5,0,0.6,0c0.1,1,0.3,1.8,0.3,2.7c0,0.2-0.1,0.5-0.3,0.7c-1.6,1-4.5,0.5-5.8-0.8
			C18.4,57.9,19.3,57.3,20.2,56.6z M23.8,61.6c0.1,0,0.2,0,0.2,0c0.2,1.8,0.5,3.6,0.6,5.5c0.2,3.8,0.1,7.5-0.7,11.2
			c-0.1,0.3-0.3,0.7-0.6,0.8c-3,0.9-6,0.6-9.1-0.1C18.8,73.7,21.8,67.9,23.8,61.6z M38,78.3c-0.1,1-0.2,2.1-0.5,3
			c-0.5,1.4-1.2,2.7-1.9,4.1c-0.9,1.7-20.7,1.4-22,0.1c-1.1-1.2-1.9-2.1-2-3.7c0.6,0,1.1,0,1.6,0c6,0.3,12,0.1,17.8-1.4
			c2.2-0.6,4.3-1.4,6.2-2.6C37.8,77.5,38,77.6,38,78.3z"/>
		<path id="XMLID_444_" class="st0" d="M105.1,0H80.7c-6.1,0-11.6,5.1-13.3,10.7c-2,8.2-4.1,16.5-6.2,24.7c-1.5,5.5,2.1,11,8,10.9
			c8.2-0.1,16.4-0.1,24.7-0.2c6-0.4,12.2-4.9,13.6-11c2-8.1,4-16.5,6-24.6C114.8,5.1,110.8,0,105.1,0z M74.9,24
			c0.7,3.6,1.3,7.1,2,10.7c-1.3,0.1-2.6,0.2-4.1,0.3c-0.1-1.7-0.2-3.4-0.2-5.1c0-1.1-0.1-2.2,0-3.3C72.7,25,73.4,24.2,74.9,24z
			 M103.1,35.3c-1.3,1.3-3,1.7-4.8,1.6c-3.1-0.2-6.1-0.4-9.2-0.6c-2.1-0.1-4.2-0.1-6.3-0.2c-0.2,0-0.6,0-0.7,0.1
			c-1.3,1.2-2.5,1.1-3.8,0.1c-0.2-0.1-0.5-0.1-0.8-0.1c-3,0.2-5.9,0.3-8.9,0.6c-2.1,0.2-4.5-0.3-5.5-1.8V35c0-0.1,0.4-0.3,0.7-0.4
			c1.3,1.2,2.9,1.6,4.7,1.5c3.1-0.3,6.3-0.5,9.6-0.7c-0.3-1.3-0.6-2.5-0.8-3.8c-0.4-2.4-1-4.8-1.2-7.2c-0.2-2.3,0.4-4.5,2.4-6
			c0.2-0.2,0.3-0.7,0.3-1c-0.2-3.4,1.3-4.7,4.6-4c0.3,0.1,0.6-0.1,0.9-0.1c1.5-0.4,2.6,0,3.4,1.4c0.2,0.3,0.6,0.5,1,0.5
			c3.5-0.1,7.1-0.2,10.8-0.4c-0.2,1.3-0.3,2.2-0.5,3c-2.7,0.3-5.3,0.5-7.9,0.8c-0.5,0.1-1,0.2-1.5,0.4c-2.7,0.9-3.8,2.9-2.9,5.8
			c0.6-0.2,1.1-0.4,1.7-0.5c1.5-0.5,2.6,0,3,1.6c0.9,3.1,1.8,6.2,2.7,9.3c-1.6-0.1-3-0.1-4.5-0.3c-0.2,0-0.5-0.4-0.6-0.7
			c-0.4-1.1-0.7-2.3-0.9-3.5c-0.2-0.9-0.6-1.2-1.5-0.8c-0.9,0.4-1.8,0.7-2.8,1c-0.5,0.1-1,0.2-1.6,0.2c-0.7,0.1-1.1-0.2-1.1-1
			c0.1-1.7,0.1-3.4,0.1-5.2c0-0.3-0.2-0.6-0.4-0.8c-1,2.3-0.9,4.6-0.5,6.9c0.1,0.5,0.2,0.9,0.3,1.4c0.6,2.3,1.5,3,3.9,3.1
			c4.2,0.2,8.5,0.4,12.7,0.7c2.5,0.2,3.5-0.1,5.3-1.4c0.2,0.2,0.4,0.3,0.6,0.5C103.2,35.2,103.2,35.3,103.1,35.3z M104.5,17.3
			c-1.4-0.6-2.7,0.4-4.1,0.2c-0.1,0-0.2,0-0.4-0.1c0.1-0.8,0.2-1.5,0.4-2.2c1.6-0.2,3,0.1,4.3,1c0.2,0.1,0.3,0.4,0.3,0.7
			C104.9,17.1,104.6,17.3,104.5,17.3z"/>
		<path id="XMLID_433_" class="st1" d="M75.2,82.2c-0.2-0.5-0.2-1.3-0.5-1.6c-0.6-0.5-0.3-1.2-0.5-1.8c-0.5-1-1-2.1-1.2-3.2
			c-0.4-2-1.4-3.9-1.7-5.9c-0.2-1.4-0.9-2.6-0.9-4c0-1.5,0-2.9,0-4.4c0-1.6,0.7-3,1.3-4.4c0.6-1.1,1.2-2.4,2.7-3.3
			c-0.6,0-0.9,0-1.1,0c-1.3,0.3-2.3,1.2-3.6,1.6c-1.1,1.3-2.6,2.3-3.4,3.9c-0.8,1.6-1.2,3.2-1.1,5.1c0.1,1.9,0.6,3.6,1.3,5.3
			c1,2.1,2.1,4.2,3.6,6c0.8,1,1.4,2.2,2.3,3.1C73.4,79.6,74.1,81,75.2,82.2c-0.1,0-0.1,0.1-0.1,0.1c0.1,0.1,0.2,0.2,0.3,0.3
			c0,0,0.1-0.1,0.1-0.1C75.4,82.4,75.3,82.3,75.2,82.2z M88.4,61.7c0-0.1-0.1-0.2-0.1-0.3c-1-3.4-3.4-5.8-6.6-7.3
			c-0.6-0.3-1.3-0.7-2.2-0.4c1,0.8,1.5,1.9,2.2,2.8c1,1.3,1.4,2.9,1.5,4.3c0.2,2.4,0.3,4.8-0.3,7.2c-0.2,1.1-0.6,2.1-0.9,3.1
			c-0.2,0.9-0.4,1.8-0.8,2.6c-1.3,2.5-1.5,5.4-2.8,7.9c-0.1,0.1,0,0.4,0,0.5c0.1,0,0.1,0.1,0.2,0.1c0.1-0.2,0.1-0.4,0.1-0.5
			c1.3-1.8,2.6-3.7,4-5.5c1.6-2.1,3-4.3,4.2-6.7C88.3,67,88.4,64.4,88.4,61.7z M88.4,61.7c0-0.1-0.1-0.2-0.1-0.3
			c-1-3.4-3.4-5.8-6.6-7.3c-0.6-0.3-1.3-0.7-2.2-0.4c1,0.8,1.5,1.9,2.2,2.8c1,1.3,1.4,2.9,1.5,4.3c0.2,2.4,0.3,4.8-0.3,7.2
			c-0.2,1.1-0.6,2.1-0.9,3.1c-0.2,0.9-0.4,1.8-0.8,2.6c-1.3,2.5-1.5,5.4-2.8,7.9c-0.1,0.1,0,0.4,0,0.5c0.1,0,0.1,0.1,0.2,0.1
			c0.1-0.2,0.1-0.4,0.1-0.5c1.3-1.8,2.6-3.7,4-5.5c1.6-2.1,3-4.3,4.2-6.7C88.3,67,88.4,64.4,88.4,61.7z M75.2,82.2
			c-0.2-0.5-0.2-1.3-0.5-1.6c-0.6-0.5-0.3-1.2-0.5-1.8c-0.5-1-1-2.1-1.2-3.2c-0.4-2-1.4-3.9-1.7-5.9c-0.2-1.4-0.9-2.6-0.9-4
			c0-1.5,0-2.9,0-4.4c0-1.6,0.7-3,1.3-4.4c0.6-1.1,1.2-2.4,2.7-3.3c-0.6,0-0.9,0-1.1,0c-1.3,0.3-2.3,1.2-3.6,1.6
			c-1.1,1.3-2.6,2.3-3.4,3.9c-0.8,1.6-1.2,3.2-1.1,5.1c0.1,1.9,0.6,3.6,1.3,5.3c1,2.1,2.1,4.2,3.6,6c0.8,1,1.4,2.2,2.3,3.1
			C73.4,79.6,74.1,81,75.2,82.2c-0.1,0-0.1,0.1-0.1,0.1c0.1,0.1,0.2,0.2,0.3,0.3c0,0,0.1-0.1,0.1-0.1C75.4,82.4,75.3,82.3,75.2,82.2
			z M93.3,48.3c-8.2,0.1-16.4,0.2-24.7,0.2c-6.3-0.1-11.9,5.3-13.6,11c-2.1,8.2-4.3,16.1-6.4,24.3c-1.6,5.5,2.3,10.2,8,10.2h24.4
			c6,0,12.1-4.4,13.6-10.4c2.2-8.2,4.4-16.4,6.6-24.6C102.9,53.4,99.3,48.1,93.3,48.3z M78.8,89.6c-0.8,1-2.1,0.7-2.9,0.8
			c-0.7,0.1-0.8,0.3-1.8-0.2V86h4.7C78.8,87,78.8,88.6,78.8,89.6z M91,68.8c-0.9,2-2.1,3.8-3.4,5.6c-1.3,1.7-2.6,3.4-4.2,4.9
			c-0.7,0.7-1.3,1.5-2,2.3c-0.7,0.8-1.3,1.5-1.9,2.3c-0.3,0.4-0.6,1-0.9,1.6c-1.1-0.1-2.1,0.1-3.2-0.3c-0.5-0.2-0.8-0.3-1-0.8
			c-0.5-0.9-1.3-1.7-1.9-2.5c-1.5-1.8-3.2-3.3-4.7-5c-1.9-2.2-3.4-4.7-5-7.1c-0.4-0.6-1.3-3.7-1.3-4.4c0-0.7,0-1.5,0-2.2
			c0-1.4,0.4-2.7,1-4c0.6-1.3,1.3-2.4,2.4-3.2c1.6-1.2,3.5-2.2,5.5-2.7c1.5-0.4,2.9-0.8,4.5-0.7c1.2,0,2.3,0,3.5,0
			c1.8,0,3.5,0.3,5.2,0.8c1.5,0.5,3.1,1,4.4,2.2c0.8,0.8,1.8,1.5,2.4,2.5c1,1.5,1.5,3.1,1.6,4.9c0,0.5,0,1,0,1.5
			C92.2,66,91.6,67.4,91,68.8z M88.3,61.4c-1-3.4-3.4-5.8-6.6-7.3c-0.6-0.3-1.3-0.7-2.2-0.4c1,0.8,1.5,1.9,2.2,2.8
			c1,1.3,1.4,2.9,1.5,4.3c0.2,2.4,0.3,4.8-0.3,7.2c-0.2,1.1-0.6,2.1-0.9,3.1c-0.2,0.9-0.4,1.8-0.8,2.6c-1.3,2.5-1.5,5.4-2.8,7.9
			c-0.1,0.1,0,0.4,0,0.5c0.1,0,0.1,0.1,0.2,0.1c0.1-0.2,0.1-0.4,0.1-0.5c1.3-1.8,2.6-3.7,4-5.5c1.6-2.1,3-4.3,4.2-6.7
			c1.3-2.5,1.4-5.2,1.4-7.9C88.4,61.6,88.3,61.5,88.3,61.4z M75.2,82.2c-0.2-0.5-0.2-1.3-0.5-1.6c-0.6-0.5-0.3-1.2-0.5-1.8
			c-0.5-1-1-2.1-1.2-3.2c-0.4-2-1.4-3.9-1.7-5.9c-0.2-1.4-0.9-2.6-0.9-4c0-1.5,0-2.9,0-4.4c0-1.6,0.7-3,1.3-4.4
			c0.6-1.1,1.2-2.4,2.7-3.3c-0.6,0-0.9,0-1.1,0c-1.3,0.3-2.3,1.2-3.6,1.6c-1.1,1.3-2.6,2.3-3.4,3.9c-0.8,1.6-1.2,3.2-1.1,5.1
			c0.1,1.9,0.6,3.6,1.3,5.3c1,2.1,2.1,4.2,3.6,6c0.8,1,1.4,2.2,2.3,3.1C73.4,79.6,74.1,81,75.2,82.2c-0.1,0-0.1,0.1-0.1,0.1
			c0.1,0.1,0.2,0.2,0.3,0.3c0,0,0.1-0.1,0.1-0.1C75.4,82.4,75.3,82.3,75.2,82.2z"/>
	</g>
</g>
</svg>
