<?xml version="1.0" encoding="utf-8"?>
<!-- Generator: Adobe Illustrator 19.0.0, SVG Export Plug-In . SVG Version: 6.00 Build 0)  -->
<svg version="1.1" id="Layer_1" xmlns="http://www.w3.org/2000/svg" xmlns:xlink="http://www.w3.org/1999/xlink" x="0px" y="0px"
	 viewBox="0 0 70 54.7" style="enable-background:new 0 0 70 54.7;" xml:space="preserve">
<style type="text/css">
	.st0{fill:#333333;}
</style>
<g id="XMLID_285_">
	<path id="XMLID_290_" class="st0" d="M0,53.4c1-2,2-4,3-6.1c1.4-2.8,2.7-5.6,4.1-8.4c1.2-2.5,2.5-5.1,3.7-7.6
		c0.3-0.7,0.8-1,1.5-0.9c2.8,0,5.6,0,8.4,0c0.7,0,1.2,0.2,1.6,0.7c1.1,1.3,2.2,2.5,3.4,3.8c-0.3,0-0.5,0-0.7,0c-3.2,0-6.4,0-9.7,0
		c-0.9,0-1.4,0.3-1.8,1.2c-1.9,4-3.9,8-5.8,12c-0.3,0.7-0.7,1.4-1.1,2.2c18.9,0,37.7,0,56.6,0c-0.3-0.7-0.6-1.3-0.9-1.9
		c-2-4.1-4-8.2-6-12.3c-0.3-0.7-0.8-1.1-1.7-1.1c-3.3,0-6.5,0-9.8,0c-0.2,0-0.4,0-0.7,0c0.6-0.6,1.1-1.2,1.6-1.8
		c0.7-0.7,1.3-1.5,2-2.2c0.3-0.3,0.7-0.5,1.1-0.5c3,0,6,0,8.9,0c0.6,0,1,0.3,1.3,0.8c1.1,2.3,2.3,4.6,3.4,7c1.5,3.2,3.1,6.4,4.6,9.5
		c0.9,1.9,1.9,3.8,2.8,5.7c0,0.2,0,0.4,0,0.7c-0.4,0.6-1,0.7-1.6,0.7c-13.8,0-27.5,0-41.3,0c-8.5,0-17,0-25.5,0
		c-0.6,0-1.2-0.1-1.6-0.7C0,53.8,0,53.6,0,53.4z"/>
	<path id="XMLID_286_" class="st0" d="M50.8,15.2c-0.1,3.3-0.5,5.8-1.6,8.1c-0.8,1.8-2,3.3-3.2,4.8c-1.9,2.2-3.8,4.3-5.7,6.6
		c-1.7,2-3,4.3-4,6.7c-0.1,0.2-0.2,0.4-0.3,0.6c-0.4,0.7-1.4,0.7-1.8,0c-0.2-0.3-0.4-0.8-0.6-1.1c-1.5-3.5-3.8-6.4-6.3-9.2
		c-1.9-2.1-3.9-4.1-5.4-6.5c-2.3-3.6-3.1-7.5-2.4-11.8c0.6-3.6,2.3-6.7,4.9-9.2C27,1.7,30.2,0.3,33.9,0c3.2-0.2,6.2,0.5,9,2.1
		c2.7,1.5,4.7,3.7,6.1,6.5C50.3,10.9,50.8,13.4,50.8,15.2z M35,7.4c-4.6,0-8.4,3.8-8.4,8.4c0,4.6,3.8,8.4,8.4,8.3
		c4.6,0,8.4-3.8,8.4-8.4C43.3,11.2,39.6,7.4,35,7.4z"/>
</g>
</svg>
