<?xml version="1.0" encoding="utf-8"?>
<!-- Generator: Adobe Illustrator 19.0.0, SVG Export Plug-In . SVG Version: 6.00 Build 0)  -->
<svg version="1.1" xmlns="http://www.w3.org/2000/svg" xmlns:xlink="http://www.w3.org/1999/xlink" x="0px" y="0px"
	 viewBox="0 0 73.6 73.6" style="enable-background:new 0 0 73.6 73.6;" xml:space="preserve">
<style type="text/css">
	.st0{fill:#FFFFFF;}
</style>
<g id="Layer_1">
	<g id="XMLID_341_">
		<path id="XMLID_342_" class="st0" d="M36.8,0c20.3,0,36.8,16.5,36.8,36.8c0,20.3-16.5,36.8-36.8,36.8C16.5,73.6,0,57.1,0,36.8
			C0,16.5,16.5,0,36.8,0z M11,27.6c17.2,0,34.4,0,51.6,0C59.5,18.1,49.7,9.2,36.8,9.2C23.7,9.2,14,18.2,11,27.6z M32.3,63.9
			c-0.3-2.1-0.4-4.1-0.8-6.1c-1-5.2-3.2-9.9-6.8-13.8c-3.5-3.8-7.7-6.2-12.9-7c-0.8-0.1-1.7-0.1-2.5-0.2
			C9.1,50.1,19.3,61.8,32.3,63.9z M64.3,36.7c-1.6,0.2-3.2,0.4-4.7,0.8c-5.5,1.4-9.7,4.8-12.9,9.4c-3,4.4-4.6,9.2-5.1,14.5
			c-0.1,0.9-0.1,1.7-0.1,2.6C54.3,61.8,64.5,50.2,64.3,36.7z M36.8,41.4c2.5,0,4.6-2.1,4.6-4.6c0-2.5-2.1-4.5-4.6-4.6
			c-2.5,0-4.6,2.1-4.6,4.6C32.2,39.3,34.3,41.4,36.8,41.4z"/>
	</g>
</g>
<g id="Layer_2">
</g>
</svg>
