<?xml version="1.0" encoding="utf-8"?>
<!-- Generator: Adobe Illustrator 19.0.0, SVG Export Plug-In . SVG Version: 6.00 Build 0)  -->
<svg version="1.1" id="Layer_1" xmlns="http://www.w3.org/2000/svg" xmlns:xlink="http://www.w3.org/1999/xlink" x="0px" y="0px"
	 viewBox="0 0 76.2 77" style="enable-background:new 0 0 76.2 77;" xml:space="preserve">
<style type="text/css">
	.st0{fill:#FFFFFF;}
</style>
<g id="XMLID_209_">
	<g id="XMLID_208_">
		<path id="XMLID_3_" class="st0" d="M50.6,51.3C36.5,51.3,25,39.8,25,25.6S36.5,0,50.6,0c14.1,0,25.6,11.5,25.6,25.6
			S64.7,51.3,50.6,51.3z M50.6,7C40.3,7,32,15.4,32,25.6s8.4,18.6,18.6,18.6s18.6-8.4,18.6-18.6S60.9,7,50.6,7z"/>
	</g>
	<g id="XMLID_197_">
		<path id="XMLID_2_" class="st0" d="M3.5,77c-0.9,0-1.8-0.3-2.5-1c-1.4-1.4-1.4-3.6,0-4.9l29.3-29.3c1.4-1.4,3.6-1.4,5,0
			c1.4,1.4,1.4,3.6,0,4.9L6,76C5.3,76.7,4.4,77,3.5,77z"/>
	</g>
</g>
</svg>
