<?xml version="1.0" encoding="utf-8"?>
<!-- Generator: Adobe Illustrator 19.0.0, SVG Export Plug-In . SVG Version: 6.00 Build 0)  -->
<svg version="1.1" id="Layer_1" xmlns="http://www.w3.org/2000/svg" xmlns:xlink="http://www.w3.org/1999/xlink" x="0px" y="0px"
	 viewBox="0 0 25 25" style="enable-background:new 0 0 25 25;" xml:space="preserve">
<style type="text/css">
	.st0{fill:#FFFFFF;}
	.st1{fill:#808080;}
	.st2{fill:#F5841F;}
	.st3{fill:#30E5DC;}
	.st4{fill:#2B35B2;}
</style>
<g id="XMLID_508_">
	<path id="XMLID_560_" class="st0" d="M78.2,32.7H63.4c-2.8,0-5.1-2.3-5.1-5.1V12.8c0-2.8,2.3-5.1,5.1-5.1h14.8
		c2.8,0,5.1,2.3,5.1,5.1v14.8C83.3,30.4,81,32.7,78.2,32.7z"/>
	<g id="XMLID_1212_">
		<path id="XMLID_1215_" class="st1" d="M61.7,25c0.1-0.1,0.2-0.1,0.3-0.2c0.6,0.5,1.3,0.7,2.1,0.6c1.4-0.1,2.7-0.2,4.2-0.3
			c-0.1-0.5-0.2-1.1-0.3-1.6c-0.2-1-0.4-2.1-0.5-3.1c-0.1-1,0.2-1.9,1.1-2.6c0.1-0.1,0.1-0.3,0.1-0.4c-0.1-1.5,0.6-2,2-1.7
			c0.1,0,0.3,0,0.4-0.1c0.7-0.2,1.1,0,1.5,0.6c0.1,0.1,0.3,0.2,0.4,0.2c1.5,0,3.1-0.1,4.7-0.2c-0.1,0.5-0.1,1-0.2,1.3
			c-1.2,0.1-2.3,0.2-3.4,0.3c-0.2,0-0.4,0.1-0.7,0.2c-1.2,0.4-1.6,1.3-1.3,2.5c0.2-0.1,0.5-0.2,0.7-0.2c0.7-0.2,1.1,0,1.3,0.7
			c0.4,1.3,0.8,2.7,1.2,4c-0.7,0-1.3-0.1-1.9-0.1c-0.1,0-0.2-0.2-0.2-0.3c-0.2-0.5-0.3-1-0.4-1.5c-0.1-0.4-0.3-0.5-0.7-0.3
			c-0.4,0.2-0.8,0.3-1.2,0.4c-0.2,0.1-0.4,0.1-0.7,0.1c-0.3,0-0.5-0.1-0.5-0.4c0-0.7,0-1.5,0.1-2.2c0-0.1-0.1-0.3-0.2-0.4
			c-0.4,1-0.4,2-0.2,3c0,0.2,0.1,0.4,0.1,0.6c0.2,1,0.7,1.3,1.7,1.3c1.8,0.1,3.7,0.2,5.5,0.3c1.1,0.1,1.5,0,2.3-0.6
			c0.1,0.1,0.2,0.1,0.3,0.2c0,0.1,0,0.1-0.1,0.1c-0.6,0.5-1.3,0.8-2.1,0.7c-1.3-0.1-2.7-0.2-4-0.3c-0.9,0-1.8,0-2.7-0.1
			c-0.1,0-0.2,0-0.3,0c-0.5,0.5-1.1,0.5-1.7,0c-0.1-0.1-0.2,0-0.4,0c-1.3,0.1-2.6,0.1-3.9,0.3C63.2,25.9,62.4,25.7,61.7,25
			C61.7,25,61.7,25,61.7,25z"/>
		<path id="XMLID_1214_" class="st1" d="M66.9,20.2c0.3,1.6,0.6,3.1,0.9,4.6c-0.5,0-1.1,0.1-1.8,0.1c0-0.7-0.1-1.5-0.1-2.2
			c0-0.5,0-1,0-1.4C65.9,20.6,66.2,20.3,66.9,20.2z"/>
		<path id="XMLID_1213_" class="st1" d="M77.8,17.3c0.1-0.3,0.1-0.6,0.2-0.9c0.7-0.1,1.3,0,1.8,0.4c0.1,0.1,0.1,0.2,0.1,0.3
			c0,0.1-0.1,0.2-0.2,0.2c-0.6-0.3-1.2,0.2-1.8,0.1C77.9,17.4,77.9,17.4,77.8,17.3z"/>
	</g>
</g>
<g id="XMLID_567_">
	<path id="XMLID_556_" class="st0" d="M83.6-6.5H68.8c-2.8,0-5.1-2.3-5.1-5.1v-14.8c0-2.8,2.3-5.1,5.1-5.1h14.8
		c2.8,0,5.1,2.3,5.1,5.1v14.8C88.7-8.8,86.4-6.5,83.6-6.5z"/>
	<g id="XMLID_1232_">
		<g id="XMLID_1235_">
			<path id="XMLID_1242_" class="st2" d="M66.5-15.7c0-1.7,1.1-3.2,2.6-3.7c1.2-0.4,2.3,0,2.9,1.1c1.2,1.9-0.1,5-2.3,5.5
				c-1.7,0.4-3-0.8-3.2-2.4C66.4-15.5,66.5-15.6,66.5-15.7z"/>
			<path id="XMLID_1241_" class="st2" d="M73.9-13.5c-0.1-0.2-0.1-0.4-0.2-0.6c-0.6-2.1-1.1-4.3-1.6-6.4c-0.1-0.3,0-0.6,0.1-0.9
				c0.1-0.2,0.3-0.4,0.5-0.5c0.2,0,0.5,0.2,0.6,0.4c0.2,0.4,0.3,0.9,0.4,1.3c0.2,2.1,0.3,4.2,0.4,6.3C73.9-13.8,73.9-13.7,73.9-13.5
				C73.9-13.5,73.9-13.5,73.9-13.5z"/>
			<path id="XMLID_1240_" class="st2" d="M75.9-25.1c0,0,0.5-0.4,3.3,0.1c0.7,0.1,1,0.6,1,1.3c0,0.6-0.5,1.1-1.2,1.2
				c-0.6,0.1-1.2-0.4-1.3-0.9C77.4-24.6,75.9-25.1,75.9-25.1z"/>
			<path id="XMLID_1239_" class="st2" d="M74.5-19.8c-0.1-0.4-1.6-0.7-1.8-0.9c-0.1-0.1-0.1-0.4-0.1-0.7c0-0.2,0.2-0.3,0.5-0.3
				c1,0,1.7,0.5,2.4,1.2c0.2,0.2,0.3,0.6,0.1,0.9c-0.1,0.3-0.3,0.7-0.5,0.9c-0.5,0.6-1.8,1.9-2,1.9C73.5-17.8,74.9-18.8,74.5-19.8z"
				/>
			<path id="XMLID_1237_" class="st2" d="M79.6-19.5c1.2,0,2.1,0.8,2.4,2c0.5,1.8-0.5,3.9-2.2,4.6c-1.7,0.7-3.4-0.4-3.6-2.3
				c-0.2-1.8,1-3.7,2.8-4.2C79.2-19.5,79.4-19.5,79.6-19.5z"/>
			<path id="XMLID_1236_" class="st2" d="M81.1-19.8c-1.9,0-3.6-0.4-4.7-2.2c-0.1-0.2-0.2-0.4-0.3-0.6c-0.1-0.3-0.1-0.5,0.2-0.6
				c0.2-0.2,0.5-0.2,0.7,0c0.2,0.2,0.3,0.4,0.4,0.6c0.6,1.6,1.9,2.3,3.4,2.7C80.9-19.9,81-19.9,81.1-19.8
				C81.1-19.9,81.1-19.9,81.1-19.8z"/>
		</g>
		<path id="XMLID_1234_" class="st2" d="M76.8-23.4c-0.6-0.1-4.3,1.5-4.4,1.7c-0.2,0.2,1,0.9,1,0.9s2.6-1.6,3.5-0.7
			C77.1-21.2,76.8-23.4,76.8-23.4z"/>
	</g>
</g>
<g id="XMLID_568_">
	<path id="XMLID_532_" class="st3" d="M50.6,16.6H38.5c-2.4,0-4.3-1.9-4.3-4.3V-0.2c0-2.4,1.9-4.3,4.3-4.3h12.1
		c2.4,0,4.3,1.9,4.3,4.3v12.6C54.8,14.7,52.9,16.6,50.6,16.6z"/>
	<g id="XMLID_222_">
		<path id="XMLID_368_" class="st0" d="M57-2c0-2.8-2.3-5-5-5H37c-2.8,0-5,2.3-5,5V13c0,2.8,2.3,5,5,5H52c2.8,0,5-2.3,5-5V-2z
			 M45.8,15.7c-0.4,0.5-1.2,0.3-1.6,0.4c-0.4,0-0.1,0.1-1.1-0.2V14h2.8C45.8,15,45.8,15.2,45.8,15.7z M51.9,5.2
			c-0.4,1-1,1.9-1.7,2.8c-0.6,0.9-1.3,1.7-2.1,2.4c-0.4,0.4-0.7,0.8-1,1.2c-0.3,0.4-0.7,0.8-1,1.2c-0.2,0.2-0.3,0.5-0.5,0.8
			c-0.5,0-1.1,0.1-1.6-0.2c-0.2-0.1-0.4-0.2-0.5-0.4c-0.3-0.5-0.6-0.9-1-1.3c-0.7-0.9-1.6-1.7-2.3-2.5c-0.9-1.1-1.7-2.3-2.5-3.6
			c-0.2-0.3-0.6-1.9-0.6-2.2c0-0.4,0-0.7,0-1.1c0-0.7,0.2-1.3,0.5-2c0.3-0.7,0.7-1.2,1.2-1.6c0.8-0.6,1.7-1.1,2.7-1.3
			C42.4-2.8,43.1-3,43.9-3c0.6,0,1.2,0,1.7,0c0.9,0,1.8,0.2,2.6,0.4C49-2.3,49.8-2,50.4-1.4c0.4,0.4,0.9,0.7,1.2,1.2
			c0.5,0.8,0.8,1.5,0.8,2.4c0,0.2,0,0.5,0,0.7C52.5,3.8,52.2,4.5,51.9,5.2z"/>
		<path id="XMLID_260_" class="st0" d="M44.1,12.1C44.1,12.1,44.1,12.1,44.1,12.1C44,12.1,44,12,44,12c0,0,0,0,0,0
			c-0.5-0.6-0.9-1.3-1.4-1.8c-0.5-0.5-0.8-1-1.1-1.5c-0.7-0.9-1.3-1.9-1.8-3C39.3,4.7,39,3.8,39,2.9c0-0.9,0.2-1.7,0.6-2.5
			c0.4-0.8,1.1-1.3,1.7-2c0.6-0.2,1.1-0.6,1.8-0.8c0.1,0,0.2,0,0.5,0c-0.7,0.5-1,1.1-1.3,1.7c-0.3,0.7-0.7,1.4-0.7,2.2
			c0,0.7,0,1.5,0,2.2c0,0.7,0.3,1.3,0.5,2c0.2,1,0.6,1.9,0.9,2.9c0.1,0.5,0.4,1.1,0.6,1.6c0.1,0.3,0,0.6,0.3,0.9
			c0.2,0.2,0.2,0.5,0.3,0.8C44,12,44.1,12,44.1,12.1z"/>
		<path id="XMLID_241_" class="st0" d="M49.9,5.6c-0.6,1.2-1.3,2.3-2.1,3.3c-0.7,0.9-1.3,1.8-2,2.8c0,0.1,0,0.2-0.1,0.2
			c0,0-0.1,0-0.1-0.1c0-0.1,0-0.2,0-0.3c0.6-1.2,0.8-2.7,1.4-3.9c0.2-0.4,0.3-0.9,0.4-1.3c0.1-0.5,0.3-1,0.4-1.6
			c0.3-1.2,0.3-2.4,0.1-3.6c-0.1-0.7-0.3-1.5-0.8-2.2c-0.3-0.5-0.6-1-1.1-1.4c0.5-0.2,0.8,0.1,1.1,0.2c1.6,0.7,2.8,1.9,3.3,3.6
			c0,0.1,0.1,0.1,0.1,0.2C50.6,3,50.6,4.3,49.9,5.6z"/>
	</g>
</g>
<g id="XMLID_569_">
	<path id="XMLID_497_" class="st4" d="M19.4,23.3H5.7c-2.5,0-4.6-2.1-4.6-4.6v-13c0-2.5,2.1-4.6,4.6-4.6h13.8c2.5,0,4.6,2.1,4.6,4.6
		v13C24.1,21.3,22,23.3,19.4,23.3z"/>
	<path id="XMLID_563_" class="st0" d="M25,5.1C25,2.3,22.7,0,19.9,0H5.1C2.3,0,0,2.3,0,5.1v14.8C0,22.7,2.3,25,5.1,25h14.8
		c2.8,0,5.1-2.3,5.1-5.1V5.1z M17,7.3c1.8,2.1,2.5,5.6,2.2,7.6c-2.8-0.1-5.2,0.9-7.3,2.7c1-4.6,0.7-9-0.3-13.6
		C13.7,4.7,15.6,5.6,17,7.3z M8.8,3.7c0.4-0.3,0.8-0.6,1.3-0.6c0.1,0,0.3,0,0.3,0c0.1,0.6,0.2,1.1,0.2,1.6c0,0.1-0.1,0.3-0.2,0.4
		C9.5,5.6,7.8,5.4,7,4.6C7.7,4.5,8.3,4.1,8.8,3.7z M11,6.7c0,0,0.1,0,0.1,0c0.1,1.1,0.3,2.2,0.4,3.3c0.1,2.3,0.1,4.5-0.4,6.8
		c0,0.2-0.2,0.4-0.3,0.5c-1.8,0.5-3.6,0.3-5.4-0.1C8,14,9.7,10.5,11,6.7z M19.5,16.8c0,0.6-0.1,1.3-0.3,1.8
		c-0.3,0.8-0.7,1.6-1.2,2.5c-0.5,1-12.5,0.8-13.2,0c-0.7-0.7-1.1-1.3-1.2-2.2c0.3,0,0.7,0,1,0c3.6,0.2,7.2,0.1,10.7-0.8
		c1.3-0.3,2.6-0.8,3.7-1.5C19.4,16.3,19.5,16.3,19.5,16.8z"/>
</g>
</svg>
