<?xml version="1.0" encoding="utf-8"?>
<!-- Generator: Adobe Illustrator 19.0.0, SVG Export Plug-In . SVG Version: 6.00 Build 0)  -->
<svg version="1.1" id="Layer_1" xmlns="http://www.w3.org/2000/svg" xmlns:xlink="http://www.w3.org/1999/xlink" x="0px" y="0px"
	 viewBox="0 0 69 69" style="enable-background:new 0 0 69 69;" xml:space="preserve">
<style type="text/css">
	.st0{fill:#30E5DC;}
</style>
<path id="XMLID_563_" class="st0" d="M69,13.9C69,6.2,62.8,0,55.1,0H13.9C6.2,0,0,6.2,0,13.9v41.2C0,62.8,6.2,69,13.9,69h41.2
	C62.8,69,69,62.8,69,55.1V13.9z M45.1,20.6c5,5.8,6.9,15.2,6,20.7c-7.6-0.4-14.1,2.6-20,7.5c2.6-12.4,2-24.6-0.8-36.9
	C36.2,13.3,41.2,16,45.1,20.6z M22.7,10.7c1.1-0.9,2.2-1.6,3.6-1.7c0.4,0,0.8,0,0.9,0c0.2,1.6,0.4,3,0.5,4.3c0,0.4-0.2,0.9-0.5,1.1
	c-2.6,1.6-7.4,0.9-9.5-1.4C19.8,12.9,21.3,11.9,22.7,10.7z M28.7,18.8c0.1,0,0.3,0,0.4,0c0.4,3,0.9,6,1,9c0.3,6.2,0.2,12.3-1.1,18.4
	c-0.1,0.5-0.5,1.2-1,1.3c-4.9,1.4-9.8,0.9-14.8-0.2C20.5,38.8,25.4,29.2,28.7,18.8z M51.8,46.3c-0.1,1.7-0.3,3.4-0.8,5
	c-0.8,2.3-2,4.5-3.2,6.8c-1.4,2.8-34,2.2-36.1,0.1c-1.9-1.9-3-3.5-3.2-6c0.9,0,1.8,0,2.6,0c9.8,0.5,19.6,0.2,29.2-2.3
	c3.6-0.9,7-2.3,10.2-4.2C51.6,45,51.9,45,51.8,46.3z"/>
</svg>
