<?xml version="1.0" encoding="utf-8"?>
<!-- Generator: Adobe Illustrator 19.0.0, SVG Export Plug-In . SVG Version: 6.00 Build 0)  -->
<svg version="1.1" id="Layer_1" xmlns="http://www.w3.org/2000/svg" xmlns:xlink="http://www.w3.org/1999/xlink" x="0px" y="0px"
	 viewBox="0 0 31.1 31.1" style="enable-background:new 0 0 31.1 31.1;" xml:space="preserve">
<style type="text/css">
	.st0{fill:#ED1C24;}
</style>
<g id="XMLID_2_">
	<path id="XMLID_24_" class="st0" d="M30.1,26.6c1,1,1,2.6,0,3.5c-0.5,0.5-1.1,0.7-1.8,0.7c-0.6,0-1.3-0.2-1.8-0.7L15.5,19.1
		L4.5,30.2c-0.5,0.5-1.1,0.7-1.8,0.7s-1.3-0.2-1.8-0.7c-1-1-1-2.6,0-3.5L12,15.6L0.9,4.5C0,3.5,0,2,0.9,1c1-1,2.6-1,3.5,0L15.5,12
		L26.6,1c1-1,2.6-1,3.5,0c1,1,1,2.6,0,3.5L19.1,15.6L30.1,26.6z"/>
</g>
</svg>
